# xmcd
#
# Track frame offsets:
#	150
#	15194
#	33959
#	51860
#	68152
#	82997
#	96525
#	110964
#	123796
#	138312
#	152440
#	168719
#	190064
#	206455
#	222827
#	236672
#
# Disc length: 3353 seconds
#
# Revision: 0
# Processed by: cddbd v1.5.2PL0 Copyright (c) Steve Scherf et al.
# Submitted via: audiograbber 1.83.01
#
DISCID=d50d1710
DTITLE=Diverse - Sangria Fete
DYEAR=1900
DGENRE=Party
TTITLE0=Danny Davis - Vamos a la Playa
TTITLE1=Holiday - Endlich wieder Holiday (Mallorca-Mix)
TTITLE2=Klaus Densow - Das kommt mir spanisch vor
TTITLE3=Francesco Napoli - Ila, Ila, Ila
TTITLE4=Strandjungs - Strandjungs-Hit-Medley 1984-1985 (Surfen auf'm Baggersee,
TTITLE4=Kaffeebraun, Kleines rotes Cabriolet, Barbara Ann)
TTITLE5=Concord - Anita
TTITLE6=Duo Wörle - Und Juanita hat getanzt
TTITLE7=Chris Wolff - Happy Holiday
TTITLE8=Arno and Wolfgang - 7 Tage Sonnenschein
TTITLE9=Claus Weikel - Unter dem Sonnenschirm der Träume
TTITLE10=Duo Wörle - Mallorca Partynight
TTITLE11=Steve Young - Viva Mallorca
TTITLE12=Die Girls - Itsy Bitsy Teeny Weeny Honolulu Strandbikini
TTITLE13=Roberto Blanco - Macarena
TTITLE14=Concord - Fiesta Mexicana
TTITLE15=Die Hähne - Dicke Mädchen haben schöne Namen
EXTD=
EXTT0=
EXTT1=
EXTT2=
EXTT3=
EXTT4=
EXTT5=
EXTT6=
EXTT7=
EXTT8=
EXTT9=
EXTT10=
EXTT11=
EXTT12=
EXTT13=
EXTT14=
EXTT15=
PLAYORDER=
